<svg width="39" height="39" viewBox="0 0 39 39" fill="none" xmlns="http://www.w3.org/2000/svg">
<path d="M32.625 23.25H36.375C36.8723 23.25 37.3492 23.0525 37.7008 22.7008C38.0525 22.3492 38.25 21.8723 38.25 21.375C38.25 20.8777 38.0525 20.4008 37.7008 20.0492C37.3492 19.6975 36.8723 19.5 36.375 19.5H32.625V17.625C32.6084 16.7612 32.476 15.9036 32.2313 15.075C33.9937 14.3993 35.5111 13.2073 36.585 11.6551C37.6589 10.1028 38.2392 8.2625 38.25 6.375C38.25 5.87772 38.0525 5.40081 37.7008 5.04918C37.3492 4.69754 36.8723 4.5 36.375 4.5C35.8777 4.5 35.4008 4.69754 35.0492 5.04918C34.6975 5.40081 34.5 5.87772 34.5 6.375C34.4984 7.58408 34.1072 8.76045 33.3844 9.72974C32.6617 10.699 31.6458 11.4096 30.4875 11.7562C29.5628 10.5712 28.3667 9.62588 27 9C27.0194 8.75038 27.0194 8.49962 27 8.25C27 6.26088 26.2098 4.35322 24.8033 2.9467C23.3968 1.54018 21.4891 0.75 19.5 0.75C17.5109 0.75 15.6032 1.54018 14.1967 2.9467C12.7902 4.35322 12 6.26088 12 8.25C11.9806 8.49962 11.9806 8.75038 12 9C10.6062 9.61559 9.38337 10.5616 8.4375 11.7562C7.29315 11.3964 6.29381 10.6801 5.58543 9.71195C4.87705 8.74383 4.49673 7.5746 4.5 6.375C4.5 5.87772 4.30246 5.40081 3.95083 5.04918C3.59919 4.69754 3.12228 4.5 2.625 4.5C2.12772 4.5 1.65081 4.69754 1.29917 5.04918C0.947544 5.40081 0.75 5.87772 0.75 6.375C0.760812 8.2625 1.34112 10.1028 2.415 11.6551C3.48888 13.2073 5.00631 14.3993 6.76875 15.075C6.52402 15.9036 6.39158 16.7612 6.375 17.625V19.5H2.625C2.12772 19.5 1.65081 19.6975 1.29917 20.0492C0.947544 20.4008 0.75 20.8777 0.75 21.375C0.75 21.8723 0.947544 22.3492 1.29917 22.7008C1.65081 23.0525 2.12772 23.25 2.625 23.25H6.375V25.125C6.37662 25.9941 6.46455 26.8608 6.6375 27.7125C4.90553 28.4066 3.42007 29.6017 2.37123 31.1449C1.3224 32.6881 0.757904 34.5091 0.75 36.375C0.75 36.8723 0.947544 37.3492 1.29917 37.7008C1.65081 38.0525 2.12772 38.25 2.625 38.25C3.12228 38.25 3.59919 38.0525 3.95083 37.7008C4.30246 37.3492 4.5 36.8723 4.5 36.375C4.50507 35.2815 4.82878 34.2131 5.43152 33.3007C6.03427 32.3882 6.88991 31.6713 7.89375 31.2375C9.00882 33.3492 10.6789 35.1166 12.7241 36.3495C14.7692 37.5823 17.112 38.2338 19.5 38.2338C21.888 38.2338 24.2308 37.5823 26.2759 36.3495C28.3211 35.1166 29.9912 33.3492 31.1063 31.2375C32.1101 31.6713 32.9657 32.3882 33.5685 33.3007C34.1712 34.2131 34.4949 35.2815 34.5 36.375C34.5 36.8723 34.6975 37.3492 35.0492 37.7008C35.4008 38.0525 35.8777 38.25 36.375 38.25C36.8723 38.25 37.3492 38.0525 37.7008 37.7008C38.0525 37.3492 38.25 36.8723 38.25 36.375C38.2421 34.5091 37.6776 32.6881 36.6288 31.1449C35.5799 29.6017 34.0945 28.4066 32.3625 27.7125C32.5355 26.8608 32.6234 25.9941 32.625 25.125V23.25ZM17.625 34.3125C15.5074 33.8803 13.6043 32.7297 12.2376 31.0554C10.8708 29.3812 10.1246 27.2862 10.125 25.125V17.625C10.125 16.1332 10.7176 14.7024 11.7725 13.6475C12.8274 12.5926 14.2582 12 15.75 12H17.625V34.3125ZM15.75 8.25C15.75 7.25544 16.1451 6.30161 16.8484 5.59835C17.5516 4.89509 18.5054 4.5 19.5 4.5C20.4946 4.5 21.4484 4.89509 22.1516 5.59835C22.8549 6.30161 23.25 7.25544 23.25 8.25H15.75ZM28.875 25.125C28.8754 27.2862 28.1292 29.3812 26.7624 31.0554C25.3957 32.7297 23.4926 33.8803 21.375 34.3125V12H23.25C24.7418 12 26.1726 12.5926 27.2275 13.6475C28.2824 14.7024 28.875 16.1332 28.875 17.625V25.125Z" fill="black"/>
</svg>
