<svg width="30" height="30" viewBox="0 0 30 30" fill="none" xmlns="http://www.w3.org/2000/svg">
<path d="M16.7624 15L24.6374 7.13749C24.8728 6.90211 25.005 6.58286 25.005 6.24999C25.005 5.91711 24.8728 5.59787 24.6374 5.36249C24.402 5.12711 24.0828 4.99487 23.7499 4.99487C23.417 4.99487 23.0978 5.12711 22.8624 5.36249L14.9999 13.2375L7.13742 5.36249C6.90204 5.12711 6.5828 4.99487 6.24992 4.99487C5.91705 4.99487 5.5978 5.12711 5.36242 5.36249C5.12704 5.59787 4.99481 5.91711 4.99481 6.24999C4.99481 6.58286 5.12704 6.90211 5.36242 7.13749L13.2374 15L5.36242 22.8625C5.24526 22.9787 5.15227 23.1169 5.08881 23.2693C5.02535 23.4216 4.99268 23.585 4.99268 23.75C4.99268 23.915 5.02535 24.0784 5.08881 24.2307C5.15227 24.383 5.24526 24.5213 5.36242 24.6375C5.47863 24.7546 5.61688 24.8476 5.7692 24.9111C5.92153 24.9746 6.08491 25.0072 6.24992 25.0072C6.41494 25.0072 6.57832 24.9746 6.73064 24.9111C6.88297 24.8476 7.02122 24.7546 7.13742 24.6375L14.9999 16.7625L22.8624 24.6375C22.9786 24.7546 23.1169 24.8476 23.2692 24.9111C23.4215 24.9746 23.5849 25.0072 23.7499 25.0072C23.9149 25.0072 24.0783 24.9746 24.2306 24.9111C24.383 24.8476 24.5212 24.7546 24.6374 24.6375C24.7546 24.5213 24.8476 24.383 24.911 24.2307C24.9745 24.0784 25.0072 23.915 25.0072 23.75C25.0072 23.585 24.9745 23.4216 24.911 23.2693C24.8476 23.1169 24.7546 22.9787 24.6374 22.8625L16.7624 15Z" fill="black"/>
<path d="M10 3H20V-3H10V3ZM27 10V20H33V10H27ZM20 27H10V33H20V27ZM3 20V10H-3V20H3ZM10 27C6.13401 27 3 23.866 3 20H-3C-3 27.1797 2.8203 33 10 33V27ZM27 20C27 23.866 23.866 27 20 27V33C27.1797 33 33 27.1797 33 20H27ZM20 3C23.866 3 27 6.13401 27 10H33C33 2.8203 27.1797 -3 20 -3V3ZM10 -3C2.8203 -3 -3 2.8203 -3 10H3C3 6.13401 6.13401 3 10 3V-3Z" fill="black"/>
</svg>
