<svg width="45" height="45" viewBox="0 0 45 45" fill="none" xmlns="http://www.w3.org/2000/svg">
<path d="M22.4999 0C17.1573 0.00022715 11.989 1.9496 7.91993 5.49932C3.85084 9.04903 1.14643 13.9675 0.290609 19.3745C-0.565212 24.7816 0.483398 30.3245 3.24881 35.0114C6.01423 39.6983 10.316 43.2233 15.3844 44.9558C16.5094 45.1577 16.9312 44.4657 16.9312 43.8601C16.9312 43.3122 16.9031 41.4955 16.9031 39.5635C11.25 40.6304 9.78749 38.1505 9.33749 36.8529C8.83817 35.5909 8.04662 34.4725 7.03126 33.5943C6.24377 33.1618 5.11878 32.0949 7.00311 32.0661C7.72263 32.1461 8.41272 32.4028 9.01492 32.8144C9.61711 33.226 10.1137 33.7804 10.4625 34.4306C10.7702 34.9974 11.184 35.4964 11.6802 35.8989C12.1763 36.3015 12.745 36.5997 13.3538 36.7765C13.9625 36.9533 14.5993 37.0052 15.2277 36.9292C15.856 36.8532 16.4636 36.6509 17.0155 36.3338C17.1129 35.161 17.6227 34.0645 18.4499 33.2484C13.4437 32.6716 8.2125 30.6818 8.2125 21.858C8.18089 19.5653 9.00604 17.347 10.5187 15.6582C9.83088 13.6655 9.91136 11.4787 10.7437 9.5449C10.7437 9.5449 12.628 8.93931 16.9312 11.9095C20.6128 10.8713 24.4995 10.8713 28.1811 11.9095C32.4842 8.9105 34.3686 9.5449 34.3686 9.5449C35.2011 11.4787 35.2815 13.6656 34.5936 15.6582C36.1108 17.3441 36.9367 19.5643 36.8998 21.858C36.8998 30.7107 31.6404 32.6716 26.6342 33.2484C27.1712 33.8064 27.5848 34.4763 27.8468 35.2127C28.1089 35.9491 28.2133 36.7347 28.153 37.5162C28.153 40.6017 28.1248 43.0815 28.1248 43.8601C28.1248 44.4657 28.5467 45.1866 29.6717 44.9559C34.7312 43.2093 39.0206 39.676 41.7742 34.9867C44.5278 30.2974 45.5665 24.7573 44.7047 19.3555C43.843 13.9537 41.1369 9.04163 37.0696 5.49623C33.0023 1.95084 27.8385 0.00284882 22.4999 0Z" fill="black"/>
</svg>
